<?xml version="1.0" ?><svg width="32px" height="32px" viewBox="0 0 32 32" xmlns="http://www.w3.org/2000/svg"><title/><path fill="#fff" d="M27.139,15H26V14a6.007,6.007,0,0,0-6-6V6a1,1,0,0,0-1-1H13a1,1,0,0,0-1,1V8a6.007,6.007,0,0,0-6,6v1H4.861A2.577,2.577,0,0,0,2.32,18l.474,2.848A2.569,2.569,0,0,0,5.335,23H6a5.006,5.006,0,0,0,5,5H21a5.006,5.006,0,0,0,5-5h.665a2.569,2.569,0,0,0,2.542-2.153L29.68,18a2.577,2.577,0,0,0-2.542-3ZM6,21H5.335a.576.576,0,0,1-.569-.481l-.474-2.847A.577.577,0,0,1,4.861,17H6ZM14,7h4V8H14Zm-2,3h8a4.007,4.007,0,0,1,3.874,3H8.126A4.007,4.007,0,0,1,12,10Zm12,6v7a3,3,0,0,1-3,3H11a3,3,0,0,1-3-3V15H24Zm3.233,4.518a.576.576,0,0,1-.569.482H26V17h1.139a.577.577,0,0,1,.569.672Z"/></svg>